<?xml version="1.0" encoding="UTF-8"?>
<svg id="Layer_1" data-name="Layer 1" xmlns="http://www.w3.org/2000/svg" viewBox="0 0 1079.96 1080.16">
  <defs>
    <style>
      .cls-1 {
        fill: #fff;
      }
    </style>
  </defs>
  <path id="f" class="cls-1" d="M590.89,243.47c-28.45-40.6-44.99-89.31-49.61-146.11-4.08,31.48-10.28,58.14-18.44,79.98-8.23,21.84-19.46,46.24-33.83,73.11-14.9,29.12-25.86,54.65-33.08,76.49-10.48,31.68-10.21,61.11-10.75,81.21-1.57,60.09-2.18,188.56,0,358.77v42.76c-2.25,16.51-6.94,36.19-18.1,46.14-1.5,1.33-3.13,2.46-4.83,3.38-10.35,6.15-22.73,6.05-17.7,6.05,7.62,0,14.7,2.36,21.23,6.67.14.1.27.1.41.31,1.99,1.32,3.87,2.97,5.75,4.61,3.63,3.26,7.13,7.1,10.45,11.48.2.21.34.51.54.72,3.74,5.02,7.28,10.56,10.55,16.61.61,1.13,1.16,2.26,1.7,3.38,0,0,2.63,5.36,5.04,11.07,2.25,5.35,11.58,39.82,20.07,89.21,0,0,.01,0,.02,0,.07-45.71,25.86-144.06,74.72-144.06,5.85,0-11.87.09-22.51-9.4-11.17-9.97-15.9-29.7-18.12-46.17v-226.62c1.34-2.24,2.65-4.55,4.14-6.47,8.8-11.39,17.96-21.36,27.41-29.9,9.45-8.54,19.2-16.11,29.3-22.79,10.07-6.63,18.91-15.67,26.47-27.06h-87.32v-153.19c1.5-43.78,10.75-65.62,27.63-65.62,8.23,0,14.9,6.15,20.01,18.46,5.1,12.3,7.69,27.99,7.69,47.17v119.66c13.82-40.6,29.2-72.7,46.14-96.08,16.88-23.38,37.16-41.22,60.71-53.52-28.72-6.15-57.31-29.53-85.69-70.24Z"/>
</svg>