<?xml version="1.0" encoding="UTF-8"?>
<svg xmlns="http://www.w3.org/2000/svg" viewBox="0 0 1079.96 1080.16">
  <defs>
    <style>
      .cls-1 {
        fill: #fff;
      }

      .cls-2 {
        fill: none;
      }
    </style>
  </defs>
  <g id="Layer_4" data-name="Layer 4">
    <g>
      <path class="cls-2" d="M400.38,535.07h16.23v-8.96h-16.23v-16.09h16.23v-8.95h-16.23v-16.09h16.23V199.62h-18.64v241.56l-60.6,60.6,70.77,70.77h15.62c0-7.32,0-14.45,0-21.4h-23.38v-16.09Z"/>
      <path class="cls-2" d="M422.26,535.07h1.52c0-3.02.01-6.01.02-8.96h-1.55v8.96Z"/>
      <path class="cls-2" d="M422.26,510.02h1.61c.01-3.03.03-6.01.05-8.95h-1.66v8.95Z"/>
      <path class="cls-2" d="M422.26,484.98h1.77c.25-32.65.67-58.61,1.16-77.36.05-1.75.09-3.56.13-5.43.24-10.51.52-22.97,2.06-36.77l-5.11-5.11v124.68Z"/>
      <path class="cls-2" d="M315.46,777.87h72.51l36.25,36.25c.33-1.83.65-3.77.95-5.85v-41.24c-.03-2.43-.06-4.85-.09-7.26l-3.05-3.05c-.82.43-1.69.77-2.63.99-6.09,1.44-12.2-2.32-13.64-8.41-1.44-6.09,2.32-12.2,8.41-13.64,3.98-.94,7.97.35,10.66,3.06-.12-10.53-.23-20.87-.33-30.99h-38.91l-70.14,70.14Z"/>
      <path class="cls-2" d="M422.26,199.62v152.68l6.01,6.01c1.66-11.81,4.32-24.48,8.68-37.66,1.62-4.92,3.43-10,5.4-15.23v-105.8h-20.09Z"/>
      <path class="cls-2" d="M275,777.87h32.47l75.79-75.79h41.2c-.07-7.59-.14-15.07-.2-22.43h-51.04l-98.22,98.22Z"/>
      <path class="cls-2" d="M233.68,777.87h33.31l103.88-103.88h53.34c-.05-5.89-.09-11.7-.13-17.44h-69.09l-121.32,121.32Z"/>
      <path class="cls-2" d="M228.02,783.53l-40.23,40.23h44.08l28.85-28.85h118.63v13.77h16.23v38.11h-38.11v-38.11h16.23v-8.12h-110.63l-23.19,23.2h70.12l48.03,48.03h26.48c-.59-1.7-.95-3.45-1.07-5.2-.62-9.04,5.4-19.57,17.79-21.28,5.62-.78,8.97-2.23,10.79-3.32l.34-.2.35-.19c.4-.22.76-.47,1.07-.74,1.85-1.65,5.84-6.6,9.07-20.12l-37.21-37.21h-157.61Z"/>
      <path class="cls-2" d="M333.37,505.78l-20.73,20.73,85.06,85.06h26.16c-.04-11.5-.07-22.62-.09-33.36h-17.97l-72.43-72.43Z"/>
      <polygon class="cls-2" points="698.16 324.99 692.34 328.03 695.12 328.03 698.16 324.99"/>
      <path class="cls-2" d="M545.82,840.91c.59.53,3.96,3.21,12.5,4.39,12.54,1.74,18.45,12.03,17.81,21.29-.64,9.26-7.99,18.64-20.8,18.64h-.3c-9.13,0-19.18,8.85-28.28,24.41h181.79v-32.19h-77.56l-40.18-40.18h-47.88c1.17,1.88,2.2,3,2.91,3.64Z"/>
      <path class="cls-1" d="M336.05,888.88l-41.1-41.1H48.03v5.66h244.57l39.44,39.44c-2.57,4.35-2,10.03,1.74,13.77,4.43,4.43,11.6,4.43,16.03,0,4.43-4.43,4.43-11.6,0-16.03-3.73-3.73-9.42-4.31-13.77-1.74Z"/>
      <path class="cls-1" d="M247.69,902.4c-5.28,0-9.71,3.62-10.97,8.51H48.03v5.66h188.69c1.26,4.89,5.68,8.51,10.97,8.51,6.26,0,11.34-5.08,11.34-11.34s-5.08-11.34-11.34-11.34Z"/>
      <path class="cls-1" d="M650.55,752.23c-1.37-6.11-7.44-9.95-13.54-8.58-6.11,1.37-9.95,7.44-8.58,13.54,1.37,6.11,7.44,9.95,13.54,8.58,1.18-.27,2.28-.71,3.27-1.29l63.29,63.29v26.62h-57.63l-77.57-77.57c2.56-4.35,1.99-10.03-1.74-13.76-1.32-1.32-2.89-2.24-4.56-2.77-2.96,4.69-7.95,8.39-14.67,9.19-.48,3.41.57,6.99,3.19,9.61,3.74,3.74,9.43,4.31,13.77,1.74l79.22,79.22h59.98v11.75h-75.22l-93.42-93.42c-.97,1.46-1.98,3.12-2.99,5.01l48.24,48.24h-45.04c.98,2.4,1.94,4.25,2.82,5.66h47.88l40.18,40.18h77.56v32.19h-181.79c-1.05,1.8-2.09,3.69-3.11,5.66h184.9v117.24h5.66v-207.12l-64.95-64.95c1.42-2.4,1.97-5.31,1.31-8.25Z"/>
      <path class="cls-1" d="M432.71,909.65h-7.27c-.8-3.09-2.88-5.83-5.97-7.34-5.62-2.76-12.41-.44-15.17,5.17-2.76,5.62-.44,12.41,5.17,15.17,5.62,2.76,12.41.44,15.17-5.17.35-.71.61-1.43.8-2.17h10.52s-.04-.08-.06-.12c-1.03-1.9-2.1-3.74-3.2-5.54Z"/>
      <path class="cls-1" d="M414.18,735.67c-6.09,1.44-9.86,7.55-8.41,13.64,1.44,6.09,7.55,9.86,13.64,8.41.94-.22,1.81-.57,2.63-.99l3.05,3.05c-.09-7.11-.17-14.12-.25-21.06-2.69-2.71-6.67-4-10.66-3.06Z"/>
      <path class="cls-1" d="M902.99,761.57c3.65-5.09,2.49-12.17-2.6-15.82-5.09-3.65-12.17-2.49-15.82,2.6-2.7,3.76-2.76,8.6-.56,12.35l-112.75,112.75v159.09h5.66v-156.75l111.08-111.08c5,2.97,11.53,1.68,14.99-3.14Z"/>
      <path class="cls-1" d="M358.02,871.8l-48.03-48.03h-70.12l23.19-23.2h110.63v8.12h-16.23v38.11h38.11v-38.11h-16.23v-13.77h-118.63l-28.85,28.85h-44.08l40.23-40.23h157.61l37.21,37.21c.48-2.01.95-4.21,1.38-6.62l-36.25-36.25h-72.51l70.14-70.14h38.91c-.02-1.89-.04-3.78-.05-5.66h-41.2l-75.79,75.79h-32.47l98.22-98.22h51.04c-.02-1.9-.03-3.78-.04-5.66h-53.34l-103.88,103.88h-33.31l121.32-121.32h69.09c-.01-1.89-.03-3.78-.04-5.66h-6.88l-71.93-71.93h-12.51v-16.23h-38.11v38.11h38.11v-16.22h10.16l66.28,66.28h-56.52l-172.87,172.87H48.03v5.66h185.85l.17.17.17-.17h73.43l48.03,48.03h31.89c-1.33-1.73-2.37-3.65-3.06-5.66h-26.48Z"/>
      <path class="cls-1" d="M543.88,656.55h37.32l33.85-33.85c4.35,2.56,10.03,1.99,13.76-1.74,4.43-4.43,4.43-11.6,0-16.03s-11.6-4.43-16.03,0c-3.74,3.74-4.31,9.43-1.74,13.77l-32.19,32.19h-34.98v5.66Z"/>
      <path class="cls-1" d="M808.4,802.8c6.09-1.43,9.87-7.53,8.44-13.63-1.43-6.09-7.53-9.87-13.63-8.44-4.22.99-7.33,4.22-8.36,8.14h-62.09l-81.13-81.13h27.95l49.81,49.81h15.72v16.23h38.11v-38.11h-38.11v16.23h-13.37l-44.16-44.16h76.34l44.15-44.15c2.62,1.54,5.84,2.04,8.98,1.1,6-1.79,9.41-8.1,7.62-14.1-1.79-6-8.1-9.41-14.1-7.62-6,1.79-9.41,8.1-7.62,14.1.27.91.66,1.75,1.12,2.53l-42.49,42.49h-123.56l32.86-32.86h50.21v16.22h38.11v-38.11h-38.11v16.23h-52.55l-38.52,38.52h-19.33l72.36-72.36c4.35,2.57,10.03,2,13.77-1.74,4.43-4.43,4.43-11.6,0-16.03s-11.6-4.43-16.03,0c-3.73,3.73-4.31,9.42-1.74,13.77l-76.36,76.36h-58.82v10.72l107.42,107.42c-1.29,2.18-1.86,4.81-1.44,7.51.97,6.19,6.77,10.42,12.95,9.45,6.19-.97,10.42-6.77,9.45-12.95-.97-6.19-6.77-10.42-12.95-9.45-1.46.23-2.81.73-4.01,1.44l-108.48-108.48h96.82l86.79,86.79h64.4c1.51,5.99,7.54,9.69,13.58,8.27Z"/>
      <path class="cls-1" d="M775.01,834.28c-1.44-6.09-7.55-9.86-13.64-8.41-6.09,1.44-9.86,7.55-8.41,13.64.28,1.2.75,2.3,1.36,3.29l-16.03,16.03v173.71h5.66v-171.37l14.44-14.44c2.41,1.37,5.31,1.88,8.22,1.19,6.09-1.44,9.86-7.55,8.41-13.64Z"/>
      <path class="cls-1" d="M951.38,766.07c6.09-1.43,9.87-7.53,8.44-13.63-1.43-6.09-7.53-9.87-13.63-8.44-6.09,1.43-9.87,7.53-8.44,13.63.26,1.13.69,2.17,1.25,3.12l-112.7,112.7v159.09h5.66v-156.75l111.04-111.03c2.44,1.45,5.41,2,8.39,1.3Z"/>
      <path class="cls-1" d="M948.03,886.59c-4.8,4.02-5.44,11.17-1.42,15.97,4.02,4.8,11.17,5.44,15.97,1.42,4.32-3.62,5.26-9.77,2.47-14.46l66.93-66.93v-8l-70.93,70.93c-4.01-2.36-9.24-2.09-13.01,1.07Z"/>
      <path class="cls-1" d="M243.32,412.4c5.78,2.41,12.42-.32,14.82-6.1,2.41-5.78-.32-12.42-6.1-14.82-5.78-2.41-12.42.32-14.82,6.1-1.43,3.43-1.04,7.16.72,10.13l-189.91,189.91v8l193.91-193.91c.44.26.89.5,1.38.7Z"/>
      <path class="cls-1" d="M152.11,472.92c4.43-4.43,4.43-11.6,0-16.03-4.43-4.43-11.6-4.43-16.03,0-4.02,4.02-4.38,10.29-1.11,14.72l-86.94,86.94v8l91.35-91.35c4.18,1.91,9.28,1.16,12.73-2.28Z"/>
      <path class="cls-1" d="M126.24,429.97c6.09-1.44,9.87-7.54,8.43-13.64s-7.54-9.87-13.64-8.43c-6.09,1.44-9.87,7.54-8.43,13.64.22.94.57,1.82.99,2.63l-65.57,65.57v8l69.36-69.36c2.52,1.66,5.68,2.33,8.85,1.58Z"/>
      <path class="cls-1" d="M649.65,520.9l89.88,89.88c-2.57,4.35-2,10.04,1.73,13.77,4.43,4.43,11.6,4.43,16.03,0,4.43-4.43,4.43-11.6,0-16.03-3.73-3.73-9.42-4.3-13.76-1.74l-16.85-16.85v-147.69h16.22v-38.11h-38.11v38.11h16.23v142.03l-69.03-69.03h-38.86c-1.5,1.95-3.04,3.83-4.62,5.66h41.14Z"/>
      <path class="cls-1" d="M635.98,562.44c-3.77-3.77-9.52-4.32-13.88-1.67l-18.59-18.59h-18.91c-2.04,2.03-4.17,3.91-6.38,5.66h22.95l16.98,16.98c-2.49,4.33-1.9,9.96,1.8,13.66,4.43,4.43,11.6,4.43,16.03,0,4.43-4.43,4.43-11.6,0-16.03Z"/>
      <polygon class="cls-1" points="626.1 496.27 626.1 506.29 664.2 506.29 664.2 468.18 626.1 468.18 626.1 476.83 639 476.83 626.1 496.27"/>
      <path class="cls-1" d="M397.69,611.57l-85.06-85.06,20.73-20.73,72.43,72.43h17.97c0-1.9,0-3.78,0-5.66h-15.62l-70.77-70.77,60.6-60.6v-241.56h18.64v285.36h-16.23v16.09h16.23v8.95h-16.23v16.09h16.23v8.96h-16.23v16.09h23.38c0-5.48.01-10.84.03-16.09h-1.52v-8.96h1.55c.02-5.5.04-10.86.06-16.09h-1.61v-8.95h1.66c.03-5.53.07-10.9.11-16.09h-1.77v-124.68l5.11,5.11c.26-2.33.56-4.7.9-7.11l-6.01-6.01v-152.68h20.09v105.8c1.75-4.65,3.64-9.41,5.66-14.29V48.31h-5.66v145.65h-50.04v135.1h-81.41v-77.33l-37.19-37.19c2.53-4.28,2.03-9.87-1.59-13.63-4.34-4.51-11.52-4.64-16.03-.3-4.51,4.34-4.64,11.52-.3,16.03,3.71,3.86,9.49,4.5,13.91,1.89l35.54,35.53v52.38l-91.67-91.67c1.45-2.45,1.98-5.44,1.26-8.43-1.47-6.08-7.6-9.82-13.68-8.35-6.08,1.47-9.82,7.6-8.35,13.68,1.47,6.08,7.6,9.82,13.68,8.35,1.12-.27,2.15-.7,3.09-1.25l95.67,95.67v20.26h87.07v22.29h-63.93l-230.96,230.96c-4.35-2.57-10.04-2-13.77,1.74-4.43,4.43-4.43,11.6,0,16.03s11.6,4.43,16.03,0c3.73-3.73,4.31-9.42,1.74-13.76l229.3-229.3h61.59v31.56l-174.34,174.34c-8.86-6.91-21.69-6.47-30.05,1.53-9.19,8.79-9.52,23.37-.73,32.56s23.37,9.52,32.56.73c8.64-8.26,9.45-21.62,2.23-30.83l170.33-170.33v36.61l-125.29,125.29c-4.35-2.57-10.04-2-13.77,1.74-4.43,4.43-4.43,11.6,0,16.03s11.6,4.43,16.03,0c3.73-3.73,4.31-9.42,1.74-13.76l37.62-37.62,86.71,86.71h28.52c0-1.9-.02-3.78-.02-5.66h-26.16Z"/>
      <path class="cls-1" d="M572.19,622.41c4.43-4.43,4.43-11.6,0-16.03-4.43-4.43-11.6-4.43-16.03,0-1.49,1.49-2.46,3.29-2.95,5.19h-9.33v5.66h9.33c.49,1.9,1.46,3.7,2.95,5.19,4.43,4.43,11.6,4.43,16.03,0Z"/>
      <path class="cls-1" d="M98.78,328.56c4.43-4.43,4.43-11.6,0-16.03-1.49-1.49-3.29-2.46-5.18-2.95V48.31h-5.66v261.27c-1.9.49-3.7,1.46-5.19,2.95-4.43,4.43-4.43,11.6,0,16.03s11.6,4.43,16.03,0Z"/>
      <path class="cls-1" d="M470.89,48.31h-5.66v204.92c1.83-3.72,3.71-7.48,5.66-11.29V48.31Z"/>
      <path class="cls-1" d="M638.21,418.67l-2.99,1.56c-3.93,2.06-7.7,4.44-11.31,7.14-.31,1.54-.31,3.16.08,4.79,1.44,6.09,7.55,9.86,13.64,8.41,6.09-1.44,9.86-7.55,8.41-13.64-.97-4.11-4.07-7.15-7.85-8.26Z"/>
      <path class="cls-1" d="M610.69,236.79h5.44c.66,5.63,5.44,10,11.25,10,6.26,0,11.34-5.08,11.34-11.34s-5.08-11.34-11.34-11.34c-4.73,0-8.78,2.9-10.48,7.02h-10.21c.2.29.39.58.59.86,1.14,1.63,2.28,3.23,3.42,4.8Z"/>
      <path class="cls-1" d="M513.39,49.95h-5.66v109.86c2.04-6.39,3.93-13.19,5.66-20.37V49.95Z"/>
      <path class="cls-1" d="M654.2,215.61c1.52,5.97,7.54,9.66,13.57,8.24,6.09-1.43,9.87-7.53,8.44-13.63-1.43-6.09-7.53-9.87-13.63-8.44-4.23.99-7.34,4.24-8.37,8.17h-60.61c1.04,1.91,2.12,3.79,3.21,5.66h57.4Z"/>
      <path class="cls-1" d="M674.15,281.2l99.81-99.81c2.21,1.31,4.86,1.88,7.59,1.43,6.18-1.01,10.37-6.83,9.37-13.01s-6.83-10.37-13.01-9.37c-6.18,1.01-10.37,6.83-9.37,13.01.23,1.43.73,2.75,1.43,3.92l-98.16,98.16h-26.2c2.46,2.04,4.91,3.93,7.36,5.66h21.19Z"/>
      <path class="cls-1" d="M262.42,684.69c2.42,1.43,5.36,1.97,8.32,1.29,6.1-1.42,9.89-7.51,8.48-13.6-1.42-6.1-7.51-9.89-13.6-8.48-6.1,1.42-9.89,7.51-8.48,13.6.27,1.16.71,2.23,1.28,3.2l-40.42,40.43v-92.24h79.68c.49,1.9,1.46,3.7,2.95,5.18,4.43,4.43,11.6,4.43,16.03,0s4.43-11.6,0-16.03c-4.43-4.43-11.6-4.43-16.03,0-1.49,1.49-2.46,3.29-2.95,5.19h-85.34v103.04h.51l-47.6,47.6v-125.54c5.97-1.53,9.65-7.55,8.23-13.58-1.44-6.09-7.54-9.87-13.64-8.43-6.09,1.44-9.87,7.54-8.43,13.64,1,4.23,4.25,7.34,8.18,8.36v129.54h-45.65v-152.42l213.06-213.07c.44.26.89.5,1.38.7,5.78,2.41,12.42-.32,14.82-6.1,2.41-5.78-.32-12.42-6.1-14.82-5.78-2.41-12.42.32-14.82,6.1-1.43,3.43-1.04,7.16.72,10.13l-214.71,214.72v154.76h-60.24v5.66h115.55l98.84-98.84Z"/>
      <path class="cls-1" d="M216.14,318.97c4.29,2.54,9.91,2.02,13.66-1.62,4.49-4.36,4.59-11.54.23-16.03-4.36-4.49-11.54-4.59-16.03-.23-3.83,3.72-4.46,9.48-1.86,13.88l-55.21,55.21H48.03v5.66h111.24l56.87-56.87Z"/>
      <path class="cls-1" d="M132.06,309.59c-5.91,1.57-9.54,7.56-8.13,13.55,1.44,6.09,7.54,9.87,13.64,8.43,6.09-1.44,9.87-7.54,8.43-13.64-1.01-4.27-4.3-7.39-8.28-8.38v-83.45l86.17-86.17h0V48.31h-5.66v89.27l-86.17,86.17v85.84Z"/>
      <path class="cls-1" d="M348.42,286.91c-1.9.49-3.7,1.46-5.19,2.95-4.43,4.43-4.43,11.6,0,16.03s11.6,4.43,16.03,0,4.43-11.6,0-16.03c-1.49-1.49-3.28-2.46-5.18-2.95v-50.67l-65.81-65.81V48.31h-5.66v124.47l65.81,65.81v48.33Z"/>
      <path class="cls-1" d="M894.04,642.85c-1.9.49-3.71,1.46-5.2,2.95-4.43,4.43-4.43,11.6,0,16.03s11.6,4.43,16.03,0,4.43-11.6,0-16.03c-1.48-1.48-3.28-2.46-5.18-2.95v-220.02l132.28-132.28.04-8.04-137.98,137.98v222.36Z"/>
      <path class="cls-1" d="M1032.02,228.08l-.04-7.97-196.54,196.54v128.67c-5.97,1.53-9.64,7.56-8.21,13.58,1.44,6.09,7.55,9.86,13.64,8.41,6.09-1.44,9.86-7.55,8.41-13.64-1-4.23-4.26-7.33-8.19-8.36v-126.33l190.91-190.91Z"/>
      <path class="cls-1" d="M894.04,262.67l-145.38,145.38v99.04c-1.9.49-3.71,1.46-5.19,2.95-4.43,4.43-4.43,11.6,0,16.03,4.43,4.43,11.6,4.43,16.03,0s4.43-11.6,0-16.03c-1.48-1.49-3.28-2.46-5.18-2.95v-96.7l33.94-33.94v204.24c-4.89,1.26-8.51,5.68-8.51,10.97,0,6.26,5.08,11.34,11.34,11.34s11.34-5.08,11.34-11.34c0-5.28-3.62-9.71-8.51-10.97v-209.9l105.79-105.79v-73.31h17.05v82.61l-63.27,63.27-6.2-6.2-16.4,16.4,6.2,6.2-7.55,7.55-6.2-6.2-16.4,16.4,16.4,16.4,16.4-16.4-6.2-6.2,7.55-7.55,6.2,6.2,16.4-16.4-6.2-6.2,64.93-64.93v-84.96h26.43v38.28c-1.9.49-3.7,1.46-5.19,2.95-4.43,4.43-4.43,11.6,0,16.03,4.43,4.43,11.6,4.43,16.03,0,4.43-4.43,4.43-11.6,0-16.03-1.49-1.49-3.28-2.46-5.18-2.95v-38.28h50.4v26.3l-194.03,194.03v91.13c-1.9.49-3.7,1.46-5.19,2.95-4.43,4.43-4.43,11.6,0,16.03s11.6,4.43,16.03,0,4.43-11.6,0-16.03c-1.48-1.48-3.28-2.46-5.18-2.95v-88.79l194.03-194.03v-28.64h21.43v-5.66h-137.94v76.63Z"/>
      <path class="cls-1" d="M991.89,749.37l18.66-18.66v-156.5l-22.56-22.56v-37.42l25.62-25.62v-124.21c3.3-.87,6.18-3.2,7.6-6.59,2.41-5.78-.32-12.42-6.1-14.82-5.78-2.41-12.42.32-14.82,6.1-2.41,5.78.32,12.42,6.1,14.82.52.22,1.04.38,1.57.51v121.85l-19.96,19.96v-98.33s.03,0,.04,0c6.06-1.56,9.71-7.74,8.15-13.8-1.56-6.06-7.74-9.71-13.8-8.15-6.06,1.56-9.71,7.74-8.15,13.8,1.06,4.12,4.26,7.12,8.1,8.14v138.12l-31.07-31.07v-49.42c3.31-.87,6.19-3.2,7.6-6.59,2.41-5.78-.32-12.42-6.1-14.82-5.78-2.41-12.42.32-14.82,6.1-2.41,5.78.32,12.42,6.1,14.82.52.21,1.04.37,1.56.51v51.75l59.29,59.29v47.92l-79.46-79.45v-29.81h9.49v-24.81h-24.81v24.81h9.66v32.16l85.11,85.11v95.9l-13,13v-77.39l-46.7-46.7c.81-1.56,1.27-3.32,1.27-5.2,0-6.26-5.08-11.34-11.34-11.34s-11.34,5.08-11.34,11.34,5.08,11.34,11.34,11.34c2.33,0,4.49-.7,6.29-1.91l26.68,26.68-32.18,32.18h-75.66v-53.19c7.65-.99,14.56-5.95,17.69-13.6,4.64-11.33-.8-24.28-12.13-28.92-11.33-4.64-24.28.8-28.92,12.13-4.64,11.33.8,24.28,12.13,28.92,1.83.75,3.7,1.23,5.57,1.47v58.84h83.66l33.83-33.83,14.13,14.13v35.76h-146.13c-1.52-5.99-7.56-9.68-13.6-8.25-6.09,1.44-9.86,7.55-8.41,13.64,1.44,6.09,7.55,9.86,13.64,8.41,4.22-1,7.31-4.23,8.35-8.15h146.15v11.42h-127.16l-11.6,11.6c-3.75-2.9-8.44-4.63-13.55-4.63-12.25,0-22.17,9.93-22.17,22.17s9.93,22.17,22.17,22.17,22.17-9.93,22.17-22.17c0-5.1-1.73-9.8-4.63-13.55l9.94-9.94h58.01v28.85l-119.79,119.79v33.19h-9.58v24.81h24.81v-24.81h-9.58v-30.85l119.79-119.79v-31.19h61.15v69.12l-103.53,103.53v135.08h5.66v-132.74l103.53-103.53v-46.91Z"/>
      <path class="cls-1" d="M695.12,328.03h-2.78l-6.5,3.4c-1.4.73-2.78,1.49-4.15,2.26h15.77l17.46-17.46-16.76,8.76-3.04,3.04Z"/>
      <path class="cls-1" d="M835.44,195.71v44.07l-144.81,144.82v80.68c-1.9.49-3.7,1.46-5.19,2.95-4.43,4.43-4.43,11.6,0,16.03,4.43,4.43,11.6,4.43,16.03,0s4.43-11.6,0-16.03c-1.49-1.49-3.28-2.46-5.18-2.95v-78.34l144.82-144.82V48.31h-5.66v139.4l-114.95,114.95,6.59,1.41,108.36-108.36Z"/>
      <path class="cls-1" d="M579.14,176.65h22.48v16.23h38.11v-16.23h64.94V48.31h-5.66v122.68h-59.28v-16.23h-38.11v16.23h-22.48v-16.23h-7.69c2.24,8.11,4.8,15.99,7.69,23.64v-1.76Z"/>
      <path class="cls-1" d="M339.91,190.84h38.11v-19.27h20.47c.07.41.15.83.26,1.24,2.25,8.56,11.01,13.67,19.56,11.42,8.56-2.25,13.67-11.01,11.42-19.56-2.25-8.56-11.01-13.67-19.56-11.42-6.22,1.64-10.61,6.72-11.68,12.66h-20.47v-13.19h-38.11v13.19h-18.74V48.31h-5.66v123.26h24.4v19.27Z"/>
      <polygon class="cls-1" points="125.27 903.03 141.36 903.03 141.36 886.8 154.37 886.8 154.37 903.03 170.46 903.03 170.46 886.8 183.47 886.8 183.47 903.03 199.56 903.03 199.56 864.92 183.47 864.92 183.47 881.14 170.46 881.14 170.46 864.92 154.37 864.92 154.37 881.14 141.36 881.14 141.36 864.92 125.27 864.92 125.27 881.14 48.03 881.14 48.03 886.8 125.27 886.8 125.27 903.03"/>
      <polygon class="cls-1" points="889.41 166.71 903.8 166.71 903.8 175.48 926.99 175.48 926.99 166.71 941.38 166.71 941.38 175.48 964.58 175.48 964.58 166.71 1031.98 166.71 1031.98 161.06 964.58 161.06 964.58 152.29 941.38 152.29 941.38 161.06 926.99 161.06 926.99 152.29 903.8 152.29 903.8 161.06 889.41 161.06 889.41 152.29 866.22 152.29 866.22 175.48 889.41 175.48 889.41 166.71"/>
      <path class="cls-1" d="M138.58,184.32c8.61-2.03,13.94-10.66,11.91-19.27-2.03-8.61-10.66-13.94-19.27-11.91-8.61,2.03-13.94,10.66-11.91,19.27,2.03,8.61,10.66,13.94,19.27,11.91Z"/>
      <polygon class="cls-1" points="812.66 178.6 812.66 48.31 807 48.31 807 176.26 687.65 295.62 694.24 297.03 812.66 178.6"/>
      <polygon class="cls-1" points="76.61 667.23 60.38 667.23 60.38 705.34 76.61 705.34 76.61 727.68 60.38 727.68 60.38 765.79 98.49 765.79 98.49 727.68 82.26 727.68 82.26 705.34 98.49 705.34 98.49 667.23 82.26 667.23 82.26 634.57 48.03 634.57 48.03 640.22 76.61 640.22 76.61 667.23"/>
      <polygon class="cls-1" points="175.29 330.66 175.29 305.6 191.51 305.6 191.51 289.51 175.29 289.51 175.29 280.56 191.51 280.56 191.51 264.47 175.29 264.47 175.29 255.51 191.51 255.51 191.51 239.42 153.4 239.42 153.4 255.51 169.63 255.51 169.63 264.47 153.4 264.47 153.4 280.56 169.63 280.56 169.63 289.51 153.4 289.51 153.4 305.6 169.63 305.6 169.63 328.32 150.02 347.93 48.03 347.93 48.03 353.59 152.37 353.59 175.29 330.66"/>
      <polygon class="cls-1" points="216.33 354.78 236.89 354.78 236.89 371 275 371 275 332.89 236.89 332.89 236.89 349.12 213.98 349.12 170.82 392.28 48.03 392.28 48.03 397.94 173.17 397.94 216.33 354.78"/>
      <path class="cls-1" d="M632.09,378.93c-.9,1.25-1.8,2.53-2.7,3.84.25.06.51.13.76.18l32.25,6.91c3.8-3.98,6.14-9.37,6.14-15.31,0-9.48-5.95-17.56-14.31-20.73-7.99,7.39-15.39,15.77-22.14,25.12Z"/>
      <path class="cls-1" d="M868.54,245.61l-110.62,110.62c-4.42-3.06-10.52-2.63-14.45,1.3-4.43,4.43-4.43,11.6,0,16.03s11.6,4.43,16.03,0c3.53-3.53,4.24-8.81,2.13-13.05l112.57-112.57v-40.08l-16.18-16.18V48.31h-5.66v145.73l16.18,16.18v35.39Z"/>
      <polygon class="cls-1" points="918.6 840.6 936.15 823.05 929.38 816.29 937.16 808.51 943.93 815.27 961.47 797.73 943.93 780.19 926.38 797.73 933.16 804.51 925.38 812.29 918.6 805.51 901.06 823.05 907.84 829.83 855.83 881.84 855.83 1032.55 861.49 1032.55 861.49 884.18 911.84 833.83 918.6 840.6"/>
      <polygon class="cls-1" points="864.74 419.18 864.74 475.17 855.16 475.17 855.16 499.98 864.74 499.98 864.74 513.06 855.16 513.06 855.16 537.87 879.97 537.87 879.97 513.06 870.4 513.06 870.4 499.98 879.97 499.98 879.97 475.17 870.4 475.17 870.4 421.52 1032.02 259.9 1031.98 251.94 864.74 419.18"/>
      <path class="cls-1" d="M328.91,940.68l-53.9-53.9c2.08-3.05,3.06-6.85,2.45-10.78-1.28-8.21-8.97-13.83-17.18-12.55-8.21,1.28-13.83,8.97-12.55,17.18,1.28,8.21,8.97,13.83,17.18,12.55,2.26-.35,4.32-1.2,6.09-2.41l52.26,52.26v89.27h5.66v-91.61h-.01,0Z"/>
    </g>
    <polygon class="cls-1" points="626.1 468.18 626.1 500.53 648.97 489.31 643.97 475.31 626.1 468.18"/>
  </g>
  <g id="Layer_1" data-name="Layer 1">
    <path id="f" class="cls-1" d="M590.89,243.47c-28.45-40.6-44.99-89.31-49.61-146.11-4.08,31.48-10.28,58.14-18.44,79.98-8.23,21.84-19.46,46.24-33.83,73.11-14.9,29.12-25.86,54.65-33.08,76.49-10.48,31.68-10.21,61.11-10.75,81.21-1.57,60.09-2.18,188.56,0,358.77v42.76c-2.25,16.51-6.94,36.19-18.1,46.14-1.5,1.33-3.13,2.46-4.83,3.38-10.35,6.15-22.73,6.05-17.7,6.05,7.62,0,14.7,2.36,21.23,6.67.14.1.27.1.41.31,1.99,1.32,3.87,2.97,5.75,4.61,3.63,3.26,7.13,7.1,10.45,11.48.2.21.34.51.54.72,3.74,5.02,7.28,10.56,10.55,16.61.61,1.13,1.16,2.26,1.7,3.38,0,0,2.63,5.36,5.04,11.07,2.25,5.35,11.58,39.82,20.07,89.21,0,0,.01,0,.02,0,.07-45.71,25.86-144.06,74.72-144.06,5.85,0-11.87.09-22.51-9.4-11.17-9.97-15.9-29.7-18.12-46.17v-226.62c1.34-2.24,2.65-4.55,4.14-6.47,8.8-11.39,17.96-21.36,27.41-29.9,9.45-8.54,19.2-16.11,29.3-22.79,10.07-6.63,18.91-15.67,26.47-27.06h-87.32v-153.19c1.5-43.78,10.75-65.62,27.63-65.62,8.23,0,14.9,6.15,20.01,18.46,5.1,12.3,7.69,27.99,7.69,47.17v119.66c13.82-40.6,29.2-72.7,46.14-96.08,16.88-23.38,37.16-41.22,60.71-53.52-28.72-6.15-57.31-29.53-85.69-70.24Z"/>
  </g>
</svg>