<svg xmlns="http://www.w3.org/2000/svg" version="1.1" xmlns:xlink="http://www.w3.org/1999/xlink" width="1000" height="1000"><style>
    #light-icon {
      display: inline;
    }
    #dark-icon {
      display: none;
    }

    @media (prefers-color-scheme: dark) {
      #light-icon {
        display: none;
      }
      #dark-icon {
        display: inline;
      }
    }
  </style><g id="light-icon"><svg xmlns="http://www.w3.org/2000/svg" version="1.1" xmlns:xlink="http://www.w3.org/1999/xlink" width="1000" height="1000"><g clip-path="url(#SvgjsClipPath1374)"><rect width="1000" height="1000" fill="#ffffff"></rect><g transform="matrix(0.9259259259259259,0,0,0.9259259259259259,0,0)"><svg xmlns="http://www.w3.org/2000/svg" version="1.1" xmlns:xlink="http://www.w3.org/1999/xlink" width="1080" height="1080"><svg id="Layer_1" xmlns="http://www.w3.org/2000/svg" version="1.1" viewBox="0 0 1080 1080">
  <!-- Generator: Adobe Illustrator 29.1.0, SVG Export Plug-In . SVG Version: 2.1.0 Build 142)  -->
  <defs>
    <style>
      .st0 {
        fill: #fff;
      }
    </style>
  <clipPath id="SvgjsClipPath1374"><rect width="1000" height="1000" x="0" y="0" rx="500" ry="500"></rect></clipPath></defs>
  <rect x=".03" y="-.31" width="1079.96" height="1080.16"></rect>
  <g>
    <g>
      <path class="st0" d="M491.94,761.96s0-.06,0-.09c0,0,0,0,0,0,0,.03,0,.06,0,.09Z"></path>
      <path class="st0" d="M572.05,357.99c-17.91-25.56-28.31-56.21-31.23-91.97-2.57,19.81-6.47,36.59-11.61,50.34-5.18,13.75-12.25,29.11-21.29,46.01-9.38,18.33-16.28,34.4-20.82,48.14-6.6,19.94-6.43,38.46-6.77,51.11-.99,37.82-1.37,118.68,0,225.82v26.91c-1.41,10.39-4.37,22.78-11.39,29.04-.94.84-1.97,1.55-3.04,2.13-6.51,3.87-14.31,3.81-11.14,3.81,4.8,0,9.25,1.48,13.37,4.2.09.06.17.06.26.19,1.25.83,2.44,1.87,3.62,2.9,2.28,2.05,4.49,4.47,6.58,7.23.13.13.21.32.34.45,2.36,3.16,4.58,6.65,6.64,10.46.39.71.73,1.42,1.07,2.13,0,0,1.66,3.37,3.17,6.97,1.42,3.37,7.29,25.06,12.63,56.15,0,0,0,0,0,0,.04-28.77,16.27-90.68,47.03-90.68,3.68,0-7.47.06-14.17-5.92-7.03-6.27-10.01-18.7-11.4-29.06v-142.64c.85-1.41,1.67-2.86,2.6-4.07,5.54-7.17,11.3-13.44,17.25-18.82s12.09-10.14,18.44-14.34c6.34-4.17,11.9-9.86,16.66-17.03h-54.96v-96.42c.94-27.56,6.77-41.3,17.39-41.3,5.18,0,9.38,3.87,12.59,11.62,3.21,7.74,4.84,17.62,4.84,29.69v75.31c8.7-25.56,18.38-45.76,29.04-60.47,10.62-14.71,23.39-25.94,38.21-33.69-18.08-3.87-36.07-18.59-53.93-44.21Z"></path>
    </g>
    <g>
      <path class="st0" d="M264.26,227.02v377.09c4.88,35.2,23.21,133.19,105.5,218.41,63.56,65.83,134.45,92.1,169.5,102.5,37.55-13.89,101.08-42.97,161.5-102.5,51.33-50.57,80.01-103.02,95.5-137.5-17.6,30.41-54.62,84.88-121.5,128.5-51.33,33.48-100.31,47.57-132,54-26.58-10.48-57.17-25.91-88-49-96.77-72.5-132.31-173.01-145-218v-306h60c20.37-4.98,54.91-16.19,90-43,32.42-24.77,51.64-52.4,62-70-14.38,14.12-38.1,33.78-72,48-53.9,22.6-102.52,18.43-125,15-8.8-.89-19.35-2.63-31-6-11.68-3.38-21.57-7.55-29.5-11.5Z"></path>
      <path class="st0" d="M603.76,827.52c28.87-16.91,80.29-52.62,118-117,18.94-32.34,29.2-63,35-87v-326.2c-22.08,3.93-62.41,8.1-110-4.8-55.23-14.97-91.33-45.09-108-61-10.88,12.15-28.16,28.5-53,42-37.17,20.2-72.07,23.58-91,24,22.32-6.58,82.38-27.65,121-87,13.08-20.11,20.57-39.79,25-56,10.35,15.86,31.24,43.24,67,65,30.03,18.27,58.3,25.14,76,28,16.33.58,35.61.03,57-3,30.3-4.29,55.62-12.26,75-20v385.07c-8.01,26.48-21.92,60.85-47,95.93-55.7,77.93-131.22,110.06-165,122Z"></path>
    </g>
  </g>
</svg></svg></g></g></svg></g><g id="dark-icon"><svg xmlns="http://www.w3.org/2000/svg" version="1.1" xmlns:xlink="http://www.w3.org/1999/xlink" width="1000" height="1000"><g clip-path="url(#SvgjsClipPath1375)"><rect width="1000" height="1000" fill="#ffffff"></rect><g transform="matrix(0.9259259259259259,0,0,0.9259259259259259,0,0)"><svg xmlns="http://www.w3.org/2000/svg" version="1.1" xmlns:xlink="http://www.w3.org/1999/xlink" width="1080" height="1080"><svg id="Layer_1" xmlns="http://www.w3.org/2000/svg" version="1.1" viewBox="0 0 1080 1080">
  <!-- Generator: Adobe Illustrator 29.1.0, SVG Export Plug-In . SVG Version: 2.1.0 Build 142)  -->
  <defs>
    <style>
      .st0 {
        fill: #fff;
      }
    </style>
  <clipPath id="SvgjsClipPath1375"><rect width="1000" height="1000" x="0" y="0" rx="450" ry="450"></rect></clipPath></defs>
  <rect class="st0" x=".03" y="-.31" width="1079.96" height="1080.16"></rect>
  <g>
    <g>
      <path d="M491.94,761.96s0-.06,0-.09c0,0,0,0,0,0,0,.03,0,.06,0,.09Z"></path>
      <path d="M572.05,357.99c-17.91-25.56-28.31-56.21-31.23-91.97-2.57,19.81-6.47,36.59-11.61,50.34-5.18,13.75-12.25,29.11-21.29,46.01-9.38,18.33-16.28,34.4-20.82,48.14-6.6,19.94-6.43,38.46-6.77,51.11-.99,37.82-1.37,118.68,0,225.82v26.91c-1.41,10.39-4.37,22.78-11.39,29.04-.94.84-1.97,1.55-3.04,2.13-6.51,3.87-14.31,3.81-11.14,3.81,4.8,0,9.25,1.48,13.37,4.2.09.06.17.06.26.19,1.25.83,2.44,1.87,3.62,2.9,2.28,2.05,4.49,4.47,6.58,7.23.13.13.21.32.34.45,2.36,3.16,4.58,6.65,6.64,10.46.39.71.73,1.42,1.07,2.13,0,0,1.66,3.37,3.17,6.97,1.42,3.37,7.29,25.06,12.63,56.15,0,0,0,0,0,0,.04-28.77,16.27-90.68,47.03-90.68,3.68,0-7.47.06-14.17-5.92-7.03-6.27-10.01-18.7-11.4-29.06v-142.64c.85-1.41,1.67-2.86,2.6-4.07,5.54-7.17,11.3-13.44,17.25-18.82s12.09-10.14,18.44-14.34c6.34-4.17,11.9-9.86,16.66-17.03h-54.96v-96.42c.94-27.56,6.77-41.3,17.39-41.3,5.18,0,9.38,3.87,12.59,11.62,3.21,7.74,4.84,17.62,4.84,29.69v75.31c8.7-25.56,18.38-45.76,29.04-60.47,10.62-14.71,23.39-25.94,38.21-33.69-18.08-3.87-36.07-18.59-53.93-44.21Z"></path>
    </g>
    <g>
      <path d="M264.26,227.02v377.09c4.88,35.2,23.21,133.19,105.5,218.41,63.56,65.83,134.45,92.1,169.5,102.5,37.55-13.89,101.08-42.97,161.5-102.5,51.33-50.57,80.01-103.02,95.5-137.5-17.6,30.41-54.62,84.88-121.5,128.5-51.33,33.48-100.31,47.57-132,54-26.58-10.48-57.17-25.91-88-49-96.77-72.5-132.31-173.01-145-218v-306h60c20.37-4.98,54.91-16.19,90-43,32.42-24.77,51.64-52.4,62-70-14.38,14.12-38.1,33.78-72,48-53.9,22.6-102.52,18.43-125,15-8.8-.89-19.35-2.63-31-6-11.68-3.38-21.57-7.55-29.5-11.5Z"></path>
      <path d="M603.76,827.52c28.87-16.91,80.29-52.62,118-117,18.94-32.34,29.2-63,35-87v-326.2c-22.08,3.93-62.41,8.1-110-4.8-55.23-14.97-91.33-45.09-108-61-10.88,12.15-28.16,28.5-53,42-37.17,20.2-72.07,23.58-91,24,22.32-6.58,82.38-27.65,121-87,13.08-20.11,20.57-39.79,25-56,10.35,15.86,31.24,43.24,67,65,30.03,18.27,58.3,25.14,76,28,16.33.58,35.61.03,57-3,30.3-4.29,55.62-12.26,75-20v385.07c-8.01,26.48-21.92,60.85-47,95.93-55.7,77.93-131.22,110.06-165,122Z"></path>
    </g>
  </g>
</svg></svg></g></g></svg></g></svg>